<svg width="16" height="16" viewBox="0 0 16 16" fill="none" xmlns="http://www.w3.org/2000/svg">
<path fill-rule="evenodd" clip-rule="evenodd" d="M12.02 5.31322C12.1136 5.40697 12.1662 5.53405 12.1662 5.66655C12.1662 5.79905 12.1136 5.92614 12.02 6.01989L7.35333 10.6866C7.25958 10.7802 7.1325 10.8328 7 10.8328C6.8675 10.8328 6.74042 10.7802 6.64667 10.6866L3.98 8.01989C3.93088 7.97411 3.89147 7.91891 3.86415 7.85758C3.83682 7.79624 3.82212 7.73004 3.82094 7.6629C3.81976 7.59577 3.8321 7.52908 3.85725 7.46682C3.8824 7.40456 3.91983 7.34801 3.96731 7.30053C4.01479 7.25305 4.07134 7.21562 4.1336 7.19047C4.19586 7.16532 4.26255 7.15297 4.32968 7.15416C4.39682 7.15534 4.46303 7.17004 4.52436 7.19736C4.58569 7.22469 4.64089 7.26409 4.68667 7.31322L7 9.62655L11.3133 5.31322C11.4071 5.21959 11.5342 5.16699 11.6667 5.16699C11.7992 5.16699 11.9263 5.21959 12.02 5.31322Z" fill="black"/>
</svg>
