<svg width="24" height="24" viewBox="0 0 24 24" fill="none" xmlns="http://www.w3.org/2000/svg">
<path d="M2 12C2 6.47715 6.47715 2 12 2V2C17.5228 2 22 6.47715 22 12V12C22 17.5228 17.5228 22 12 22V22C6.47715 22 2 17.5228 2 12V12Z" fill="#FDEBD7"/>
<path fill-rule="evenodd" clip-rule="evenodd" d="M12 7C12.2652 7 12.5196 7.07526 12.7071 7.20921C12.8946 7.34316 13 7.52485 13 7.71429V14.1429C13 14.3323 12.8946 14.514 12.7071 14.6479C12.5196 14.7819 12.2652 14.8571 12 14.8571C11.7348 14.8571 11.4804 14.7819 11.2929 14.6479C11.1054 14.514 11 14.3323 11 14.1429V7.71429C11 7.52485 11.1054 7.34316 11.2929 7.20921C11.4804 7.07526 11.7348 7 12 7ZM12 17C12.2652 17 12.5196 16.9247 12.7071 16.7908C12.8946 16.6568 13 16.4752 13 16.2857C13 16.0963 12.8946 15.9146 12.7071 15.7806C12.5196 15.6467 12.2652 15.5714 12 15.5714C11.7348 15.5714 11.4804 15.6467 11.2929 15.7806C11.1054 15.9146 11 16.0963 11 16.2857C11 16.4752 11.1054 16.6568 11.2929 16.7908C11.4804 16.9247 11.7348 17 12 17Z" fill="#EF6F25"/>
</svg>
