<svg width="24" height="24" viewBox="0 0 24 24" fill="none" xmlns="http://www.w3.org/2000/svg">
<path d="M12 1.5C14.7848 1.5 17.4555 2.60625 19.4246 4.57538C21.3938 6.54451 22.5 9.21523 22.5 12C22.5 14.7848 21.3938 17.4555 19.4246 19.4246C17.4555 21.3938 14.7848 22.5 12 22.5C9.21523 22.5 6.54451 21.3938 4.57538 19.4246C2.60625 17.4555 1.5 14.7848 1.5 12C1.5 9.21523 2.60625 6.54451 4.57538 4.57538C6.54451 2.60625 9.21523 1.5 12 1.5ZM12 21C14.3869 21 16.6761 20.0518 18.364 18.364C20.0518 16.6761 21 14.3869 21 12C21 9.61305 20.0518 7.32387 18.364 5.63604C16.6761 3.94821 14.3869 3 12 3C9.61305 3 7.32387 3.94821 5.63604 5.63604C3.94821 7.32387 3 9.61305 3 12C3 14.3869 3.94821 16.6761 5.63604 18.364C7.32387 20.0518 9.61305 21 12 21ZM10.875 15.1969L15.6703 12L10.875 8.80313V15.1969ZM11.1234 7.16484L16.9711 11.0648C17.1248 11.1676 17.2508 11.3068 17.338 11.4699C17.4251 11.633 17.4707 11.8151 17.4707 12C17.4707 12.1849 17.4251 12.367 17.338 12.5301C17.2508 12.6932 17.1248 12.8324 16.9711 12.9352L11.1234 16.8352C10.9539 16.948 10.7569 17.0127 10.5535 17.0224C10.3501 17.0321 10.1479 16.9864 9.96838 16.8902C9.7889 16.7939 9.63891 16.6508 9.53441 16.476C9.42991 16.3012 9.37481 16.1013 9.375 15.8977V8.1C9.37481 7.89635 9.42991 7.69646 9.53441 7.52167C9.63891 7.34687 9.7889 7.20372 9.96838 7.10749C10.1479 7.01125 10.3501 6.96554 10.5535 6.97523C10.7569 6.98492 10.9539 7.04964 11.1234 7.1625V7.16484Z" fill="black"/>
</svg>
